<svg width="63" height="63" viewBox="0 0 63 63" fill="none" xmlns="http://www.w3.org/2000/svg">
<g id="mdi:instagram">
<path id="Vector" d="M20.4755 5.24951H42.5255C50.9255 5.24951 57.7505 12.0745 57.7505 20.4745V42.5245C57.7505 46.5624 56.1464 50.435 53.2912 53.2902C50.436 56.1455 46.5634 57.7495 42.5255 57.7495H20.4755C12.0755 57.7495 5.25049 50.9245 5.25049 42.5245V20.4745C5.25049 16.4366 6.85455 12.5641 9.70979 9.70881C12.565 6.85357 16.4376 5.24951 20.4755 5.24951ZM19.9505 10.4995C17.4442 10.4995 15.0405 11.4951 13.2683 13.2674C11.4961 15.0396 10.5005 17.4432 10.5005 19.9495V43.0495C10.5005 48.2733 14.7267 52.4995 19.9505 52.4995H43.0505C45.5568 52.4995 47.9604 51.5039 49.7327 49.7317C51.5049 47.9595 52.5005 45.5558 52.5005 43.0495V19.9495C52.5005 14.7258 48.2742 10.4995 43.0505 10.4995H19.9505ZM45.2817 14.437C46.152 14.437 46.9866 14.7827 47.6019 15.3981C48.2173 16.0134 48.563 16.848 48.563 17.7183C48.563 18.5885 48.2173 19.4231 47.6019 20.0385C46.9866 20.6538 46.152 20.9995 45.2817 20.9995C44.4115 20.9995 43.5769 20.6538 42.9615 20.0385C42.3462 19.4231 42.0005 18.5885 42.0005 17.7183C42.0005 16.848 42.3462 16.0134 42.9615 15.3981C43.5769 14.7827 44.4115 14.437 45.2817 14.437ZM31.5005 18.3745C34.9815 18.3745 38.3199 19.7573 40.7813 22.2187C43.2427 24.6802 44.6255 28.0185 44.6255 31.4995C44.6255 34.9805 43.2427 38.3189 40.7813 40.7803C38.3199 43.2417 34.9815 44.6245 31.5005 44.6245C28.0195 44.6245 24.6811 43.2417 22.2197 40.7803C19.7583 38.3189 18.3755 34.9805 18.3755 31.4995C18.3755 28.0185 19.7583 24.6802 22.2197 22.2187C24.6811 19.7573 28.0195 18.3745 31.5005 18.3745ZM31.5005 23.6245C29.4119 23.6245 27.4089 24.4542 25.932 25.931C24.4552 27.4079 23.6255 29.4109 23.6255 31.4995C23.6255 33.5881 24.4552 35.5911 25.932 37.068C27.4089 38.5448 29.4119 39.3745 31.5005 39.3745C33.5891 39.3745 35.5921 38.5448 37.069 37.068C38.5458 35.5911 39.3755 33.5881 39.3755 31.4995C39.3755 29.4109 38.5458 27.4079 37.069 25.931C35.5921 24.4542 33.5891 23.6245 31.5005 23.6245Z" fill="black"/>
</g>
</svg>
