<svg width="80" height="80" viewBox="0 0 80 80" fill="none" xmlns="http://www.w3.org/2000/svg">
<g id="ep:back">
<path id="Vector" d="M17.5 37.5H67.5C68.163 37.5 68.7989 37.7634 69.2678 38.2322C69.7366 38.7011 70 39.337 70 40C70 40.663 69.7366 41.2989 69.2678 41.7678C68.7989 42.2366 68.163 42.5 67.5 42.5H17.5C16.837 42.5 16.2011 42.2366 15.7322 41.7678C15.2634 41.2989 15 40.663 15 40C15 39.337 15.2634 38.7011 15.7322 38.2322C16.2011 37.7634 16.837 37.5 17.5 37.5Z" fill="black"/>
<path id="Vector_2" d="M18.5346 40L39.2696 60.73C39.739 61.1994 40.0027 61.8361 40.0027 62.5C40.0027 63.1639 39.739 63.8006 39.2696 64.27C38.8002 64.7394 38.1635 65.0031 37.4996 65.0031C36.8357 65.0031 36.199 64.7394 35.7296 64.27L13.2296 41.77C12.9968 41.5378 12.8121 41.2619 12.686 40.9581C12.56 40.6544 12.4951 40.3288 12.4951 40C12.4951 39.6711 12.56 39.3455 12.686 39.0418C12.8121 38.7381 12.9968 38.4622 13.2296 38.23L35.7296 15.73C36.199 15.2606 36.8357 14.9968 37.4996 14.9968C38.1635 14.9968 38.8002 15.2606 39.2696 15.73C39.739 16.1994 40.0027 16.8361 40.0027 17.5C40.0027 18.1639 39.739 18.8006 39.2696 19.27L18.5346 40Z" fill="black"/>
</g>
</svg>
